<svg width="200" height="200" viewBox="0 0 200 200" xmlns="http://www.w3.org/2000/svg">
  <defs>
    <linearGradient id="mentaGradient" x1="0%" y1="0%" x2="0%" y2="100%">
      <stop offset="0%" style="stop-color:#E0FFFF;stop-opacity:1" />
      <stop offset="50%" style="stop-color:#98FB98;stop-opacity:1" />
      <stop offset="100%" style="stop-color:#228B22;stop-opacity:1" />
    </linearGradient>
    <linearGradient id="flameGradient" x1="0%" y1="0%" x2="0%" y2="100%">
      <stop offset="0%" style="stop-color:#FFD700;stop-opacity:1" />
      <stop offset="50%" style="stop-color:#FFA500;stop-opacity:1" />
      <stop offset="100%" style="stop-color:#FF4500;stop-opacity:1" />
    </linearGradient>
  </defs>
  
  <!-- Fondo -->
  <rect width="200" height="200" fill="url(#mentaGradient)" opacity="0.1"/>
  
  <!-- Vela -->
  <g transform="translate(100, 160)">
    <!-- Base de la vela -->
    <rect x="-15" y="0" width="30" height="60" rx="5" fill="#F5F5DC" stroke="#8B7355" stroke-width="2"/>
    
    <!-- Mecha -->
    <rect x="-2" y="-10" width="4" height="15" fill="#2F2F2F"/>
    
    <!-- Llama -->
    <ellipse cx="0" cy="-15" rx="8" ry="12" fill="url(#flameGradient)"/>
    <ellipse cx="0" cy="-18" rx="4" ry="6" fill="#FFFFFF" opacity="0.8"/>
    
    <!-- Decoración de menta y eucalipto -->
    <g transform="translate(0, -5)">
      <!-- Hojas de menta -->
      <ellipse cx="-10" cy="-5" rx="3" ry="6" fill="#98FB98" transform="rotate(-45)"/>
      <ellipse cx="-10" cy="-12" rx="3" ry="6" fill="#90EE90" transform="rotate(-30)"/>
      <ellipse cx="10" cy="-5" rx="3" ry="6" fill="#98FB98" transform="rotate(45)"/>
      <ellipse cx="10" cy="-12" rx="3" ry="6" fill="#90EE90" transform="rotate(30)"/>
      
      <!-- Hojas de eucalipto -->
      <ellipse cx="-8" cy="-18" rx="2" ry="4" fill="#228B22" transform="rotate(-60)"/>
      <ellipse cx="8" cy="-18" rx="2" ry="4" fill="#228B22" transform="rotate(60)"/>
    </g>
    
    <!-- Brillo en la vela -->
    <rect x="-12" y="5" width="8" height="50" fill="rgba(255,255,255,0.3)" rx="3"/>
  </g>
  
  <!-- Partículas de aroma -->
  <circle cx="70" cy="75" r="2" fill="#98FB98" opacity="0.6">
    <animate attributeName="opacity" values="0.6;1;0.6" dur="3.1s" repeatCount="indefinite"/>
  </circle>
  <circle cx="130" cy="55" r="2" fill="#90EE90" opacity="0.6">
    <animate attributeName="opacity" values="0.6;1;0.6" dur="2.7s" repeatCount="indefinite"/>
  </circle>
  <circle cx="85" cy="35" r="2" fill="#228B22" opacity="0.6">
    <animate attributeName="opacity" values="0.6;1;0.6" dur="3.3s" repeatCount="indefinite"/>
  </circle>
</svg> 