<svg width="300" height="300" xmlns="http://www.w3.org/2000/svg">
  <defs>
    <linearGradient id="velaGradient1" x1="0%" y1="0%" x2="100%" y2="100%">
      <stop offset="0%" style="stop-color:#8B4513;stop-opacity:1" />
      <stop offset="100%" style="stop-color:#654321;stop-opacity:1" />
    </linearGradient>
    <radialGradient id="flameGradient" cx="50%" cy="50%" r="50%">
      <stop offset="0%" style="stop-color:#ffd700;stop-opacity:1" />
      <stop offset="50%" style="stop-color:#ff6b35;stop-opacity:1" />
      <stop offset="100%" style="stop-color:#ff4500;stop-opacity:0.8" />
    </radialGradient>
  </defs>
  
  <!-- Fondo con estilo Instagram -->
  <rect width="300" height="300" fill="#0a0a0a"/>
  
  <!-- Elementos decorativos de fondo -->
  <circle cx="50" cy="50" r="20" fill="#ffd700" opacity="0.1"/>
  <circle cx="250" cy="80" r="15" fill="#daa520" opacity="0.15"/>
  <circle cx="80" cy="250" r="25" fill="#ffd700" opacity="0.1"/>
  
  <!-- Base de la vela -->
  <rect x="120" y="200" width="60" height="80" fill="url(#velaGradient1)" rx="5"/>
  
  <!-- Cuerpo de la vela -->
  <rect x="125" y="120" width="50" height="80" fill="#f5f5dc" rx="3"/>
  
  <!-- Mecha -->
  <rect x="147" y="110" width="6" height="15" fill="#2c2c2c"/>
  
  <!-- Llama -->
  <ellipse cx="150" cy="105" rx="8" ry="12" fill="url(#flameGradient)"/>
  <ellipse cx="150" cy="100" rx="4" ry="6" fill="#ffffff" opacity="0.8"/>
  
  <!-- Aromas visuales (ondas) -->
  <path d="M 160 90 Q 170 85 180 90 Q 190 95 200 90" stroke="#ffd700" stroke-width="2" fill="none" opacity="0.8"/>
  <path d="M 140 85 Q 130 80 120 85 Q 110 90 100 85" stroke="#daa520" stroke-width="2" fill="none" opacity="0.8"/>
  
  <!-- Texto del producto -->
  <text x="150" y="320" text-anchor="middle" font-family="Arial, sans-serif" font-size="16" font-weight="bold" fill="#ffd700">CEDRO VERBENA 6×6</text>
  <text x="150" y="340" text-anchor="middle" font-family="Arial, sans-serif" font-size="14" fill="#ffffff">$32.900 COP</text>
  
  <!-- Elementos decorativos adicionales -->
  <circle cx="60" cy="60" r="3" fill="#ffd700" opacity="0.7"/>
  <circle cx="240" cy="70" r="2" fill="#ffd700" opacity="0.5"/>
  <circle cx="70" cy="240" r="4" fill="#ffd700" opacity="0.6"/>
</svg> 